
<!-- Generator: Adobe Illustrator 21.0.0, SVG Export Plug-In . SVG Version: 6.00 Build 0)  -->
<svg version="1.1" id="Capa_1" xmlns="http://www.w3.org/2000/svg" xmlns:xlink="http://www.w3.org/1999/xlink" x="0px" y="0px"
	 viewBox="0 0 30 30" style="enable-background:new 0 0 30 30;" xml:space="preserve">
<style type="text/css">
	.st0{fill-rule:evenodd;clip-rule:evenodd;fill:#262626;}
</style>
<path class="st0" d="M-204.1,42.9h4.5c1,0,2.7,0.4,2.7,2.3c0,1-0.8,2.2-1.8,2.2h-5.4V42.9z M-189.7,33.9h8.1v2.7h-8.1V33.9z
	 M-182.7,42.9h-5.9c0.2-1.6,1.4-2.7,3-2.7C-184.1,40.2-183,41.3-182.7,42.9L-182.7,42.9z M-188.9,44.7h9.9c0-0.1,0-0.3,0-0.4
	c0-3.7-2.7-6.8-6.7-6.8c-4.1,0-6.8,3-6.8,6.8c0,3.7,2.7,6.8,6.8,6.8c4.1,0,6-2.3,6.6-5.4h-3.7c-0.3,1.6-1.3,2.7-2.9,2.7
	C-187.4,48.3-188.7,46.7-188.9,44.7L-188.9,44.7z M-193.3,45.6c0-1.9-1.3-3.6-3.1-4.2c1.3-0.8,2.1-2.2,2.1-3.9c0-2.5-2-4.5-4.5-4.5
	h-9v18h9C-195.8,51-193.3,48.6-193.3,45.6L-193.3,45.6z M-199.7,40.2h-4.5v-3.6h4.5c1,0,1.8,0.8,1.8,1.8
	C-197.8,39.4-198.7,40.2-199.7,40.2L-199.7,40.2z"/>
<path class="st0" d="M2,14.9V28h6.3V13.8v-3.7H2V14.9z M28.7,15.6c-0.4-3.4-2-5.5-6.5-5.5c-2.7,0-4.5,1-5.3,2.4h-0.1v-2.4h-5v3.4V28
	h5.2v-8.9c0-2.3,0.5-4.6,3.3-4.6c2.9,0,3.1,2.7,3.1,4.8V28h5.4v-9.8C28.9,17.2,28.8,16.4,28.7,15.6L28.7,15.6z M5.1,1.1
	C3.4,1.1,2,2.5,2,4.3s1.4,3.1,3.1,3.1c1.7,0,3.1-1.4,3.1-3.1S6.9,1.1,5.1,1.1L5.1,1.1z"/>
<path class="st0" d="M161.6,14.7c-5.6,0-10.1,4.1-10.9,9.3l0,0c-0.1,0.5-0.1,1-0.1,1.5c0,6,4.9,10.8,11,10.8c6.1,0,11-4.8,11-10.8
	c0-1.6-0.3-3.2-1-4.5C169.8,17.3,166,14.7,161.6,14.7L161.6,14.7z M152.1,23.8c2.7-0.7,5.6-1.3,8.6-1.8
	C157.7,22.4,154.9,23,152.1,23.8L152.1,23.8z M200.1,24.7c-0.4-5.6-5.2-10-10.9-10c-4.5,0-8.3,2.6-10,6.4c-0.6,1.4-1,2.9-1,4.4
	c0,6,4.9,10.8,11,10.8c6.1,0,11-4.8,11-10.8C200.1,25.3,200.1,25,200.1,24.7L200.1,24.7z"/>
</svg>